<svg width="1200" height="1200" viewBox="0 0 1200 1200" fill="none" xmlns="http://www.w3.org/2000/svg">
<g clip-path="url(#clip0_4025_4655)">
<rect width="1200" height="1200" fill="black"/>
<rect width="1200" height="1200" fill="url(#paint0_linear_4025_4655)"/>
<path opacity="0.1" d="M3.93279 1193.8C333.057 1522.92 866.673 1522.92 1195.8 1193.8C1524.92 864.673 1524.92 331.057 1195.8 1.93244C866.673 -327.192 333.057 -327.192 3.93279 1.93244C-325.192 331.057 -325.192 864.673 3.93279 1193.8Z" fill="url(#paint1_linear_4025_4655)"/>
<path opacity="0.1" d="M231.18 965.942C434.594 1169.36 764.394 1169.36 967.808 965.942C1171.22 762.528 1171.22 432.728 967.808 229.314C764.394 25.8998 434.594 25.8998 231.18 229.314C27.7659 432.728 27.766 762.528 231.18 965.942Z" fill="url(#paint2_linear_4025_4655)"/>
<path opacity="0.1" d="M371.23 825.907C496.949 951.627 700.781 951.627 826.501 825.907C952.221 700.187 952.221 496.355 826.501 370.636C700.781 244.916 496.949 244.916 371.23 370.636C245.51 496.355 245.51 700.187 371.23 825.907Z" fill="url(#paint3_linear_4025_4655)"/>
<path opacity="0.1" d="M458.175 738.069C535.876 815.77 661.854 815.77 739.555 738.069C817.256 660.369 817.256 534.391 739.555 456.69C661.854 378.989 535.876 378.989 458.175 456.69C380.475 534.391 380.475 660.369 458.175 738.069Z" fill="url(#paint4_linear_4025_4655)"/>
<path opacity="0.1" d="M512.914 684.855C560.936 732.877 638.795 732.877 686.817 684.855C734.839 636.833 734.839 558.974 686.817 510.952C638.795 462.93 560.936 462.93 512.914 510.952C464.892 558.974 464.892 636.833 512.914 684.855Z" fill="url(#paint5_linear_4025_4655)"/>
<path d="M546.26 651.74C575.94 681.42 624.06 681.42 653.74 651.74C683.42 622.06 683.42 573.939 653.74 544.26C624.06 514.58 575.94 514.58 546.26 544.26C516.58 573.939 516.58 622.06 546.26 651.74Z" fill="url(#paint6_linear_4025_4655)"/>
<path d="M923.854 274.145L890.804 510.503L687.497 307.195L923.854 274.145Z" fill="url(#paint7_linear_4025_4655)"/>
<path d="M276.146 921.855L309.196 685.497L512.503 888.805L276.146 921.855Z" fill="url(#paint8_linear_4025_4655)"/>
<path d="M819.91 378.09L684.146 513.854" stroke="url(#paint9_linear_4025_4655)" stroke-width="100"/>
<path d="M515.854 682.146L380.089 817.91" stroke="url(#paint10_linear_4025_4655)" stroke-width="100"/>
</g>
<defs>
<linearGradient id="paint0_linear_4025_4655" x1="600" y1="0" x2="600" y2="1200" gradientUnits="userSpaceOnUse">
<stop stop-color="#06737A"/>
<stop offset="1" stop-color="#06737A" stop-opacity="0.51"/>
</linearGradient>
<linearGradient id="paint1_linear_4025_4655" x1="1195.8" y1="1.93244" x2="3.93279" y2="1193.8" gradientUnits="userSpaceOnUse">
<stop stop-color="#27BFB6"/>
<stop offset="1" stop-color="#27BFB6" stop-opacity="0.2"/>
</linearGradient>
<linearGradient id="paint2_linear_4025_4655" x1="967.808" y1="229.314" x2="231.18" y2="965.942" gradientUnits="userSpaceOnUse">
<stop stop-color="#27BFB6"/>
<stop offset="1" stop-color="#27BFB6" stop-opacity="0.2"/>
</linearGradient>
<linearGradient id="paint3_linear_4025_4655" x1="826.501" y1="370.636" x2="371.23" y2="825.907" gradientUnits="userSpaceOnUse">
<stop stop-color="#27BFB6"/>
<stop offset="1" stop-color="#27BFB6" stop-opacity="0.2"/>
</linearGradient>
<linearGradient id="paint4_linear_4025_4655" x1="739.555" y1="456.69" x2="458.175" y2="738.069" gradientUnits="userSpaceOnUse">
<stop stop-color="#27BFB6"/>
<stop offset="1" stop-color="#27BFB6" stop-opacity="0.2"/>
</linearGradient>
<linearGradient id="paint5_linear_4025_4655" x1="686.817" y1="510.952" x2="512.914" y2="684.855" gradientUnits="userSpaceOnUse">
<stop stop-color="#27BFB6"/>
<stop offset="1" stop-color="#27BFB6" stop-opacity="0.2"/>
</linearGradient>
<linearGradient id="paint6_linear_4025_4655" x1="653.74" y1="544.26" x2="546.26" y2="651.74" gradientUnits="userSpaceOnUse">
<stop stop-color="#27BFB6"/>
<stop offset="1" stop-color="#27BFB6" stop-opacity="0.2"/>
</linearGradient>
<linearGradient id="paint7_linear_4025_4655" x1="923.854" y1="274.145" x2="744.249" y2="453.75" gradientUnits="userSpaceOnUse">
<stop stop-color="#27BFB6"/>
<stop offset="1" stop-color="#27BFB6" stop-opacity="0.2"/>
</linearGradient>
<linearGradient id="paint8_linear_4025_4655" x1="276.146" y1="921.855" x2="455.751" y2="742.25" gradientUnits="userSpaceOnUse">
<stop stop-color="#27BFB6"/>
<stop offset="1" stop-color="#27BFB6" stop-opacity="0.2"/>
</linearGradient>
<linearGradient id="paint9_linear_4025_4655" x1="820.264" y1="378.443" x2="684.499" y2="514.208" gradientUnits="userSpaceOnUse">
<stop stop-color="#27BFB6"/>
<stop offset="1" stop-color="#27BFB6" stop-opacity="0.2"/>
</linearGradient>
<linearGradient id="paint10_linear_4025_4655" x1="516.207" y1="682.499" x2="380.443" y2="818.264" gradientUnits="userSpaceOnUse">
<stop stop-color="#27BFB6"/>
<stop offset="1" stop-color="#27BFB6" stop-opacity="0.2"/>
</linearGradient>
<clipPath id="clip0_4025_4655">
<rect width="1200" height="1200" fill="white"/>
</clipPath>
</defs>
</svg>
